<?xml version="1.0" encoding="UTF-8" standalone="no"?>
<!-- Uploaded to: SVG Repo, www.svgrepo.com, Generator: SVG Repo Mixer Tools -->

<svg
   fill="#000000"
   version="1.1"
   id="Capa_1"
   width="15.000001"
   height="13.250337"
   viewBox="0 0 6.6116254 5.8404171"
   xml:space="preserve"
   sodipodi:docname="check-mark-svgrepo-com.svg"
   inkscape:version="1.2 (dc2aedaf03, 2022-05-15)"
   xmlns:inkscape="http://www.inkscape.org/namespaces/inkscape"
   xmlns:sodipodi="http://sodipodi.sourceforge.net/DTD/sodipodi-0.dtd"
   xmlns="http://www.w3.org/2000/svg"
   xmlns:svg="http://www.w3.org/2000/svg"><defs
   id="defs5039" /><sodipodi:namedview
   id="namedview5037"
   pagecolor="#ffffff"
   bordercolor="#000000"
   borderopacity="0.25"
   inkscape:showpageshadow="2"
   inkscape:pageopacity="0.0"
   inkscape:pagecheckerboard="0"
   inkscape:deskcolor="#d1d1d1"
   showgrid="false"
   inkscape:zoom="0.81125"
   inkscape:cx="55.469954"
   inkscape:cy="252.69646"
   inkscape:window-width="1600"
   inkscape:window-height="829"
   inkscape:window-x="-8"
   inkscape:window-y="-8"
   inkscape:window-maximized="1"
   inkscape:current-layer="Capa_1" />
<g
   id="g5034"
   transform="matrix(0.01874999,0,0,0.01874999,-1.1024252e-5,-0.38561448)"
   style="fill:#ffffff;fill-opacity:1">
	<path
   d="m 337.222,22.952 c -15.912,-8.568 -33.66,7.956 -44.064,17.748 -23.867,23.256 -44.063,50.184 -66.708,74.664 -25.092,26.928 -48.348,53.856 -74.052,80.173 -14.688,14.688 -30.6,30.6 -40.392,48.96 C 89.974,223.076 71.002,199.82 46.522,180.849 28.774,167.385 -0.602,157.593 0.01,190.029 c 1.224,42.229 38.556,87.517 66.096,116.28 11.628,12.24 26.928,25.092 44.676,25.704 21.42,1.224 43.452,-24.48 56.304,-38.556 22.645,-24.48 41.005,-52.021 61.812,-77.112 26.928,-33.048 54.468,-65.485 80.784,-99.145 16.524,-20.808 68.544,-72.217 27.54,-94.248 z M 26.937,187.581 c -0.612,0 -1.224,0 -2.448,0.611 -2.448,-0.611 -4.284,-1.224 -6.732,-2.448 v 0 c 1.836,-1.224 4.896,-0.612 9.18,1.837 z"
   id="path5032"
   style="fill:#ffffff;fill-opacity:1" />
</g>
</svg>
