<?xml version="1.0" encoding="UTF-8" standalone="no"?>
<!-- Generator: Adobe Illustrator 26.0.1, SVG Export Plug-In . SVG Version: 6.00 Build 0)  -->

<svg
   version="1.1"
   id="Capa_1"
   x="0px"
   y="0px"
   viewBox="0 0 2.4593373 2.4592497"
   xml:space="preserve"
   width="52.465862"
   height="52.463993"
   sodipodi:docname="linkedin.svg"
   xmlns:inkscape="http://www.inkscape.org/namespaces/inkscape"
   xmlns:sodipodi="http://sodipodi.sourceforge.net/DTD/sodipodi-0.dtd"
   xmlns:xlink="http://www.w3.org/1999/xlink"
   xmlns="http://www.w3.org/2000/svg"
   xmlns:svg="http://www.w3.org/2000/svg"><defs
   id="defs7576"><linearGradient
     inkscape:collect="always"
     id="linearGradient7968"><stop
       style="stop-color:#000000;stop-opacity:1;"
       offset="0"
       id="stop7964" /><stop
       style="stop-color:#000000;stop-opacity:0.41;"
       offset="1"
       id="stop7966" /></linearGradient><linearGradient
     inkscape:collect="always"
     xlink:href="#linearGradient7968"
     id="linearGradient7970"
     x1="10.830429"
     y1="3.9505436"
     x2="13.289766"
     y2="3.9505436"
     gradientUnits="userSpaceOnUse" /></defs><sodipodi:namedview
   id="namedview7574"
   pagecolor="#ffffff"
   bordercolor="#000000"
   borderopacity="0.25"
   inkscape:showpageshadow="2"
   inkscape:pageopacity="0.0"
   inkscape:pagecheckerboard="0"
   inkscape:deskcolor="#d1d1d1"
   showgrid="false" />
<g
   id="g7571"
   transform="translate(-10.830429,-2.7209189)">
	<path
   id="Path_2525"
   d="m 23.002,21.584 h 0.227 l -0.435,-0.658 v 0 c 0.266,0 0.407,-0.169 0.409,-0.376 0,-0.008 0,-0.017 -10e-4,-0.025 0,-0.282 -0.17,-0.417 -0.519,-0.417 h -0.564 v 1.476 h 0.212 v -0.643 h 0.261 z m -0.425,-0.81 h -0.246 v -0.499 h 0.312 c 0.161,0 0.345,0.026 0.345,0.237 0,0.242 -0.186,0.262 -0.412,0.262" />
	<path
   id="Path_2520"
   d="M 12.885285,4.7757907 H 12.537978 V 4.2319023 c 0,-0.1297062 -0.0023,-0.2966034 -0.180642,-0.2966034 -0.180873,0 -0.208593,0.1412563 -0.208593,0.287248 V 4.7757907 H 11.801551 V 3.657291 h 0.333448 v 0.1528062 h 0.0046 c 0.06803,-0.1161928 0.194386,-0.1856081 0.328943,-0.1806416 0.352043,0 0.416839,0.231577 0.416839,0.5326849 z M 11.40966,3.5043693 c -0.111341,0 -0.201547,-0.090205 -0.201547,-0.2015471 0,-0.1113417 0.09021,-0.201547 0.201547,-0.201547 0.111342,0 0.201547,0.090205 0.201547,0.201547 0,0.1113418 -0.09021,0.2015471 -0.201547,0.2015471 v 0 m 0.173596,1.2714214 H 11.235602 V 3.657291 h 0.347654 z m 1.475163,-1.9969909 h -1.997337 c -0.09436,-0.00104 -0.171748,0.074613 -0.172903,0.1689762 v 2.0055379 c 0.0012,0.094479 0.07854,0.1701311 0.172903,0.1690916 h 1.997337 c 0.09459,0.00116 0.172326,-0.074497 0.173597,-0.1690916 V 2.9476605 c -0.0014,-0.094594 -0.07912,-0.1702467 -0.173597,-0.1689762"
   style="fill:#3e2f4f;fill-opacity:0.69;stroke:url(#linearGradient7970);stroke-width:0.1155;stroke-opacity:1" />
	<path
   id="Path_2526"
   d="m 22.603,19.451 c -0.764,0.007 -1.378,0.633 -1.37,1.397 0.007,0.764 0.633,1.378 1.397,1.37 0.764,-0.007 1.378,-0.633 1.37,-1.397 -0.007,-0.754 -0.617,-1.363 -1.37,-1.37 h -0.027 m 0.032,2.608 c -0.67,0.011 -1.254,-0.522 -1.265,-1.192 -0.011,-0.67 0.523,-1.222 1.193,-1.233 0.67,-0.011 1.222,0.523 1.233,1.193 0,0.007 0,0.013 0,0.02 0.014,0.655 -0.506,1.198 -1.161,1.212 h -0.031" />
</g>















</svg>
